<svg xmlns="http://www.w3.org/2000/svg" xmlns:xlink="http://www.w3.org/1999/xlink" width="100" zoomAndPan="magnify" viewBox="0 0 75 74.999997" height="100" preserveAspectRatio="xMidYMid meet" version="1.2"><defs><clipPath id="4315189515"><path d="M 29 28.503906 L 46.535156 28.503906 L 46.535156 46 L 29 46 Z M 29 28.503906 "/></clipPath></defs><g id="eeb8773614"><g clip-rule="nonzero" clip-path="url(#4315189515)"><path style=" stroke:none;fill-rule:nonzero;fill:#111111;fill-opacity:1;" d="M 44.394531 40.316406 L 45.609375 41.53125 C 46.464844 42.386719 46.273438 43.824219 45.222656 44.414062 C 41.535156 46.488281 37.578125 44.636719 34.042969 41.097656 C 30.519531 37.578125 28.542969 33.507812 30.539062 29.796875 C 31.121094 28.714844 32.578125 28.5 33.445312 29.367188 L 34.957031 30.882812 C 35.671875 31.597656 35.671875 32.753906 34.957031 33.46875 L 34.234375 34.191406 C 33.585938 34.84375 33.585938 35.898438 34.234375 36.550781 L 38.726562 41.039062 C 39.375 41.691406 40.433594 41.691406 41.082031 41.039062 L 41.804688 40.316406 C 42.519531 39.601562 43.679688 39.601562 44.394531 40.316406 Z M 44.394531 40.316406 "/></g></g></svg>