<svg xmlns="http://www.w3.org/2000/svg" xmlns:xlink="http://www.w3.org/1999/xlink" width="100" zoomAndPan="magnify" viewBox="0 0 75 74.999997" height="100" preserveAspectRatio="xMidYMid meet" version="1.2"><defs><clipPath id="4225b776fa"><path d="M 27.648438 25.90625 L 47.148438 25.90625 L 47.148438 49 L 27.648438 49 Z M 27.648438 25.90625 "/></clipPath></defs><g id="d1aaeea36e"><g clip-rule="nonzero" clip-path="url(#4225b776fa)"><path style=" stroke:none;fill-rule:nonzero;fill:#111111;fill-opacity:1;" d="M 37.390625 25.914062 L 27.648438 29.726562 L 27.679688 37.308594 C 27.683594 38.617188 27.921875 39.910156 28.382812 41.144531 C 28.832031 42.351562 29.488281 43.480469 30.328125 44.503906 C 31.164062 45.527344 32.175781 46.414062 33.316406 47.140625 C 34.492188 47.890625 35.78125 48.453125 37.15625 48.816406 C 37.234375 48.839844 37.320312 48.847656 37.402344 48.847656 C 37.484375 48.847656 37.566406 48.839844 37.644531 48.816406 C 39.019531 48.449219 40.308594 47.890625 41.480469 47.140625 C 42.621094 46.414062 43.628906 45.527344 44.46875 44.503906 C 45.308594 43.480469 45.964844 42.351562 46.414062 41.144531 C 46.871094 39.90625 47.109375 38.617188 47.113281 37.308594 L 47.148438 29.746094 Z M 46.175781 37.304688 C 46.167969 38.503906 45.953125 39.679688 45.53125 40.816406 C 45.117188 41.925781 44.519531 42.960938 43.742188 43.902344 C 42.96875 44.847656 42.035156 45.667969 40.976562 46.34375 C 39.886719 47.035156 38.6875 47.5625 37.40625 47.902344 C 37.40625 47.902344 37.40625 47.902344 37.402344 47.902344 C 37.402344 47.902344 37.398438 47.902344 37.398438 47.902344 C 36.117188 47.5625 34.914062 47.042969 33.828125 46.34375 C 32.765625 45.667969 31.835938 44.847656 31.054688 43.898438 C 30.28125 42.957031 29.679688 41.917969 29.261719 40.808594 C 28.839844 39.675781 28.625 38.496094 28.621094 37.300781 L 28.59375 30.367188 L 37.390625 26.921875 L 46.203125 30.386719 Z M 46.175781 37.304688 "/></g><path style=" stroke:none;fill-rule:nonzero;fill:#111111;fill-opacity:1;" d="M 42.648438 36.242188 C 42.648438 36.230469 42.648438 36.226562 42.648438 36.21875 C 42.648438 36.203125 42.644531 36.183594 42.644531 36.171875 C 42.644531 36.164062 42.644531 36.15625 42.640625 36.148438 C 42.640625 36.136719 42.636719 36.121094 42.636719 36.105469 C 42.636719 36.097656 42.632812 36.09375 42.632812 36.085938 C 42.628906 36.070312 42.628906 36.058594 42.621094 36.042969 C 42.621094 36.035156 42.617188 36.03125 42.617188 36.019531 C 42.613281 36.007812 42.609375 35.988281 42.605469 35.972656 C 42.605469 35.96875 42.601562 35.964844 42.601562 35.957031 C 42.582031 35.890625 42.558594 35.832031 42.527344 35.773438 C 42.527344 35.769531 42.523438 35.769531 42.523438 35.761719 C 42.511719 35.746094 42.503906 35.730469 42.496094 35.710938 C 42.496094 35.707031 42.488281 35.707031 42.488281 35.703125 C 42.480469 35.683594 42.472656 35.671875 42.460938 35.65625 C 42.460938 35.652344 42.457031 35.652344 42.457031 35.648438 C 42.449219 35.628906 42.433594 35.617188 42.421875 35.597656 C 42.199219 35.300781 41.847656 35.101562 41.449219 35.101562 L 41.191406 35.101562 L 41.191406 33.597656 C 41.191406 31.496094 39.476562 29.785156 37.371094 29.796875 C 35.273438 29.8125 33.59375 31.542969 33.59375 33.640625 L 33.59375 35.097656 L 33.335938 35.097656 C 32.675781 35.097656 32.132812 35.632812 32.132812 36.300781 L 32.132812 38.765625 C 32.132812 39.746094 32.40625 40.660156 32.867188 41.449219 C 32.867188 41.449219 32.867188 41.453125 32.871094 41.453125 C 32.933594 41.550781 32.992188 41.644531 33.054688 41.738281 C 33.054688 41.738281 33.0625 41.742188 33.0625 41.742188 C 33.09375 41.789062 33.125 41.832031 33.15625 41.878906 C 33.226562 41.972656 33.292969 42.058594 33.367188 42.144531 C 33.371094 42.148438 33.371094 42.148438 33.378906 42.15625 C 33.488281 42.28125 33.597656 42.40625 33.71875 42.523438 C 33.722656 42.527344 33.726562 42.53125 33.730469 42.53125 C 33.808594 42.609375 33.890625 42.683594 33.976562 42.753906 C 33.984375 42.761719 33.988281 42.761719 33.988281 42.765625 C 34.023438 42.796875 34.066406 42.828125 34.105469 42.859375 C 34.113281 42.867188 34.117188 42.871094 34.121094 42.871094 C 34.207031 42.9375 34.296875 43.003906 34.382812 43.066406 C 34.386719 43.074219 34.394531 43.078125 34.402344 43.082031 C 34.441406 43.109375 34.484375 43.136719 34.523438 43.164062 C 34.527344 43.167969 34.535156 43.167969 34.539062 43.171875 C 34.585938 43.207031 34.628906 43.234375 34.679688 43.261719 C 34.679688 43.261719 34.683594 43.265625 34.683594 43.265625 C 34.726562 43.292969 34.773438 43.316406 34.816406 43.34375 C 34.828125 43.347656 34.835938 43.351562 34.84375 43.355469 C 34.886719 43.378906 34.933594 43.402344 34.980469 43.425781 C 34.984375 43.425781 34.988281 43.429688 34.988281 43.429688 C 35.039062 43.453125 35.085938 43.480469 35.132812 43.503906 C 35.144531 43.507812 35.152344 43.511719 35.15625 43.511719 C 35.199219 43.53125 35.242188 43.550781 35.28125 43.566406 C 35.289062 43.574219 35.304688 43.578125 35.3125 43.582031 C 35.410156 43.621094 35.511719 43.664062 35.613281 43.699219 C 35.625 43.707031 35.636719 43.710938 35.648438 43.714844 C 35.691406 43.726562 35.730469 43.742188 35.769531 43.757812 C 35.78125 43.761719 35.789062 43.765625 35.804688 43.769531 C 35.855469 43.789062 35.90625 43.800781 35.960938 43.816406 C 35.964844 43.816406 35.96875 43.820312 35.972656 43.820312 C 36.019531 43.832031 36.070312 43.847656 36.117188 43.855469 C 36.128906 43.863281 36.144531 43.867188 36.15625 43.867188 C 36.199219 43.875 36.242188 43.882812 36.28125 43.894531 C 36.296875 43.898438 36.304688 43.898438 36.320312 43.902344 C 36.367188 43.910156 36.425781 43.925781 36.472656 43.933594 C 36.484375 43.933594 36.496094 43.941406 36.507812 43.941406 C 36.546875 43.949219 36.59375 43.953125 36.636719 43.957031 C 36.648438 43.957031 36.667969 43.960938 36.679688 43.960938 C 36.726562 43.96875 36.773438 43.976562 36.820312 43.980469 C 36.828125 43.980469 36.835938 43.980469 36.847656 43.984375 C 36.902344 43.988281 36.953125 43.996094 37.007812 44 C 37.019531 44 37.035156 44 37.046875 44.003906 C 37.089844 44.007812 37.128906 44.007812 37.171875 44.007812 C 37.1875 44.007812 37.203125 44.007812 37.21875 44.007812 C 37.273438 44.007812 37.328125 44.011719 37.382812 44.011719 C 38.609375 44.011719 39.730469 43.59375 40.625 42.894531 C 40.761719 42.789062 40.886719 42.675781 41.007812 42.5625 C 41.132812 42.449219 41.246094 42.324219 41.355469 42.195312 C 41.410156 42.132812 41.464844 42.066406 41.515625 42.003906 C 41.621094 41.871094 41.71875 41.734375 41.8125 41.589844 C 42.015625 41.269531 42.1875 40.925781 42.320312 40.5625 C 42.347656 40.480469 42.375 40.402344 42.402344 40.320312 C 42.515625 39.949219 42.59375 39.5625 42.621094 39.164062 C 42.628906 39.074219 42.632812 38.984375 42.636719 38.890625 C 42.636719 38.847656 42.636719 38.800781 42.636719 38.753906 L 42.636719 36.289062 C 42.648438 36.28125 42.648438 36.261719 42.648438 36.242188 Z M 37.886719 39.40625 L 37.886719 40.472656 C 37.886719 40.621094 37.765625 40.746094 37.613281 40.746094 L 37.175781 40.746094 C 37.023438 40.746094 36.902344 40.621094 36.902344 40.472656 L 36.902344 39.40625 C 36.6875 39.25 36.539062 38.996094 36.539062 38.714844 C 36.539062 38.242188 36.917969 37.859375 37.390625 37.859375 C 37.863281 37.859375 38.246094 38.242188 38.246094 38.714844 C 38.25 38.996094 38.109375 39.25 37.886719 39.40625 Z M 40.113281 33.960938 L 40.113281 35.105469 L 34.679688 35.105469 L 34.679688 33.640625 C 34.679688 32.289062 35.652344 31.148438 36.941406 30.925781 C 36.953125 30.925781 36.957031 30.921875 36.964844 30.921875 C 36.996094 30.917969 37.03125 30.914062 37.0625 30.910156 C 37.074219 30.910156 37.089844 30.902344 37.109375 30.902344 C 37.136719 30.898438 37.164062 30.898438 37.1875 30.894531 C 37.203125 30.894531 37.226562 30.890625 37.246094 30.890625 C 37.269531 30.890625 37.292969 30.890625 37.320312 30.886719 C 37.339844 30.886719 37.363281 30.886719 37.386719 30.886719 C 37.410156 30.886719 37.433594 30.886719 37.460938 30.886719 C 37.484375 30.886719 37.507812 30.886719 37.53125 30.886719 C 37.554688 30.886719 37.574219 30.890625 37.597656 30.890625 C 37.621094 30.890625 37.644531 30.894531 37.667969 30.894531 C 37.691406 30.894531 37.714844 30.898438 37.734375 30.902344 C 37.757812 30.910156 37.78125 30.910156 37.800781 30.914062 C 37.824219 30.917969 37.847656 30.921875 37.871094 30.925781 C 37.890625 30.933594 37.914062 30.9375 37.933594 30.941406 C 37.957031 30.945312 37.980469 30.949219 38.003906 30.953125 C 38.023438 30.960938 38.042969 30.964844 38.066406 30.96875 C 38.089844 30.972656 38.113281 30.980469 38.132812 30.988281 C 38.152344 30.992188 38.171875 31 38.195312 31.003906 C 38.21875 31.011719 38.238281 31.019531 38.257812 31.027344 C 38.277344 31.03125 38.300781 31.042969 38.320312 31.050781 C 38.34375 31.058594 38.359375 31.070312 38.382812 31.074219 C 38.402344 31.082031 38.425781 31.085938 38.441406 31.097656 C 38.464844 31.105469 38.484375 31.117188 38.507812 31.125 C 38.527344 31.132812 38.546875 31.144531 38.566406 31.152344 C 38.585938 31.160156 38.609375 31.171875 38.625 31.183594 C 38.644531 31.191406 38.664062 31.203125 38.679688 31.210938 C 38.699219 31.222656 38.722656 31.234375 38.742188 31.242188 C 38.757812 31.253906 38.777344 31.265625 38.796875 31.277344 C 38.816406 31.289062 38.832031 31.300781 38.851562 31.3125 C 38.871094 31.320312 38.886719 31.335938 38.90625 31.34375 C 38.925781 31.359375 38.941406 31.371094 38.960938 31.382812 C 38.980469 31.394531 38.996094 31.40625 39.011719 31.417969 C 39.03125 31.433594 39.046875 31.445312 39.066406 31.460938 C 39.085938 31.472656 39.097656 31.488281 39.117188 31.5 C 39.136719 31.515625 39.148438 31.527344 39.167969 31.546875 C 39.179688 31.558594 39.199219 31.574219 39.214844 31.589844 C 39.230469 31.601562 39.246094 31.621094 39.265625 31.632812 C 39.277344 31.648438 39.296875 31.660156 39.308594 31.679688 C 39.324219 31.695312 39.34375 31.710938 39.355469 31.730469 C 39.371094 31.742188 39.382812 31.761719 39.398438 31.777344 C 39.410156 31.792969 39.425781 31.808594 39.441406 31.828125 C 39.457031 31.839844 39.46875 31.859375 39.484375 31.871094 C 39.5 31.890625 39.511719 31.910156 39.527344 31.925781 C 39.539062 31.945312 39.554688 31.960938 39.5625 31.976562 C 39.574219 31.996094 39.589844 32.015625 39.605469 32.03125 C 39.617188 32.050781 39.625 32.066406 39.640625 32.082031 C 39.652344 32.101562 39.664062 32.121094 39.675781 32.144531 C 39.6875 32.160156 39.699219 32.179688 39.710938 32.199219 C 39.722656 32.214844 39.730469 32.238281 39.746094 32.257812 C 39.753906 32.277344 39.769531 32.292969 39.777344 32.3125 C 39.789062 32.332031 39.800781 32.355469 39.808594 32.371094 C 39.820312 32.390625 39.828125 32.410156 39.835938 32.425781 C 39.847656 32.449219 39.855469 32.46875 39.863281 32.492188 C 39.875 32.511719 39.882812 32.527344 39.894531 32.546875 C 39.902344 32.570312 39.910156 32.59375 39.921875 32.609375 C 39.929688 32.628906 39.933594 32.648438 39.941406 32.667969 C 39.953125 32.6875 39.957031 32.710938 39.964844 32.734375 C 39.972656 32.753906 39.980469 32.773438 39.984375 32.792969 C 39.992188 32.816406 40 32.839844 40.003906 32.863281 C 40.007812 32.882812 40.015625 32.90625 40.019531 32.921875 C 40.027344 32.945312 40.03125 32.96875 40.039062 32.996094 C 40.042969 33.015625 40.046875 33.039062 40.054688 33.054688 C 40.058594 33.078125 40.0625 33.105469 40.066406 33.128906 C 40.070312 33.148438 40.078125 33.167969 40.078125 33.1875 C 40.082031 33.214844 40.085938 33.246094 40.085938 33.273438 C 40.085938 33.289062 40.089844 33.308594 40.09375 33.328125 C 40.097656 33.359375 40.097656 33.386719 40.105469 33.417969 C 40.105469 33.433594 40.109375 33.449219 40.109375 33.464844 C 40.113281 33.511719 40.113281 33.554688 40.113281 33.601562 Z M 40.113281 33.960938 "/></g></svg>