<?xml version="1.0" encoding="utf-8"?>
<!-- Generator: Adobe Illustrator 24.3.0, SVG Export Plug-In . SVG Version: 6.00 Build 0)  -->
<svg version="1.1" id="Layer_1" xmlns="http://www.w3.org/2000/svg" xmlns:xlink="http://www.w3.org/1999/xlink" x="0px" y="0px"
	 viewBox="0 0 841.89 286.98" style="enable-background:new 0 0 841.89 286.98;" xml:space="preserve">
<style type="text/css">
	.st0{fill:url(#XMLID_2_);}
	.st1{fill:#FFFFFF;}
	.st2{fill:url(#XMLID_3_);}
	.st3{fill:url(#XMLID_4_);}
	.st4{fill:url(#XMLID_5_);}
	.st5{fill:url(#XMLID_6_);}
	.st6{fill:url(#XMLID_7_);}
	.st7{fill:url(#XMLID_8_);}
	.st8{fill:url(#XMLID_9_);}
	.st9{fill:url(#XMLID_10_);}
	.st10{fill:#0E8C92;}
	.st11{fill:#2C0D37;}
	.st12{fill:url(#XMLID_11_);}
	.st13{fill:url(#XMLID_12_);}
	.st14{fill:url(#XMLID_13_);}
	.st15{fill:url(#XMLID_14_);}
	.st16{fill:url(#XMLID_15_);}
	.st17{fill:url(#XMLID_16_);}
	.st18{fill:url(#XMLID_17_);}
	.st19{fill:url(#XMLID_18_);}
	.st20{fill:url(#XMLID_19_);}
	.st21{fill:url(#XMLID_20_);}
	.st22{fill:url(#XMLID_21_);}
	.st23{fill:url(#XMLID_22_);}
	.st24{fill:url(#XMLID_23_);}
	.st25{fill:url(#XMLID_24_);}
	.st26{fill:url(#XMLID_25_);}
	.st27{fill:url(#XMLID_26_);}
	.st28{fill:url(#XMLID_27_);}
	.st29{fill:url(#XMLID_28_);}
	.st30{fill:url(#XMLID_29_);}
	.st31{fill:url(#XMLID_30_);}
	.st32{fill:url(#XMLID_31_);}
	.st33{fill:url(#XMLID_32_);}
	.st34{fill:url(#XMLID_33_);}
	.st35{fill:url(#XMLID_34_);}
	.st36{fill:url(#XMLID_35_);}
	.st37{fill:url(#XMLID_36_);}
	.st38{fill:url(#XMLID_37_);}
</style>
<g>
	<linearGradient id="XMLID_2_" gradientUnits="userSpaceOnUse" x1="391.0899" y1="143.4906" x2="23.2034" y2="143.4906">
		<stop  offset="0" style="stop-color:#01A79D"/>
		<stop  offset="1" style="stop-color:#292562"/>
	</linearGradient>
	<path id="XMLID_00000127016879306123482430000016640048566478520726_" class="st0" d="M269.73,23.92L237.36,56.3l-32.38-32.38
		l-14.44,14.44l104.15,105.12l-57.33,57.33l-17.45-17.45l39.88-39.88L140.23,23.92L20.66,143.49l119.57,119.57l32.38-32.38
		l32.38,32.38l14.82-14.83L115.28,143.49l57.33-57.33l17.44,17.45l-39.88,39.88l119.57,119.57L389.3,143.49L269.73,23.92z
		 M85.41,143.49l72.26,72.26l-17.44,17.45l-89.7-89.7l89.71-89.7l17.44,17.45L85.41,143.49z M180.03,143.49l24.95-24.95l24.95,24.95
		l-24.95,24.95L180.03,143.49z M252.29,215.75l72.26-72.26l-72.26-72.26l17.44-17.45l89.7,89.7l-89.7,89.7L252.29,215.75z"/>
	<g id="XMLID_00000000944662154578535600000016822258520255394192_">
		<path class="st1" d="M269.73,24.45l119.04,119.04L269.73,262.53L150.69,143.49l39.62-39.62l0.26-0.26l-0.26-0.26L172.87,85.9
			l-0.26-0.26l-0.26,0.26l-57.33,57.33l-0.26,0.26l0.26,0.26l104.27,104.48l-14.3,14.3l-32.12-32.12l-0.26-0.26l-0.26,0.26
			l-32.12,32.12L21.18,143.49L140.23,24.45l119.04,119.04l-39.62,39.62l-0.26,0.26l0.26,0.26l17.45,17.45l0.26,0.26l0.26-0.26
			l57.33-57.33l0.26-0.26l-0.26-0.26L191.06,38.37l13.92-13.92l32.11,32.12l0.26,0.26l0.26-0.26L269.73,24.45 M324.02,143.49l-72,72
			l-0.26,0.26l0.26,0.26l17.45,17.45l0.26,0.26l0.26-0.26l89.7-89.7l0.26-0.26l-0.26-0.26L270,53.52l-0.26-0.26l-0.26,0.26
			l-17.44,17.45l-0.26,0.26l0.26,0.26L324.02,143.49 M140.23,233.72l0.26-0.26l17.44-17.45l0.26-0.26l-0.26-0.26l-72-72l72-72
			l0.26-0.26l-0.26-0.26l-17.44-17.45l-0.26-0.26l-0.26,0.26l-89.71,89.7L50,143.49l0.26,0.26l89.7,89.7L140.23,233.72
			 M204.98,168.96l0.26-0.26l24.95-24.95l0.26-0.26l-0.26-0.26l-24.95-24.95l-0.26-0.26l-0.26,0.26l-24.95,24.95l-0.26,0.26
			l0.26,0.26l24.95,24.95L204.98,168.96 M269.73,23.92L237.36,56.3l-32.38-32.38l-14.44,14.44l104.15,105.12l-57.33,57.33
			l-17.45-17.45l39.88-39.88L140.23,23.92L20.66,143.49l119.57,119.57l32.38-32.38l32.38,32.38l14.82-14.83L115.28,143.49
			l57.33-57.33l17.44,17.45l-39.88,39.88l119.57,119.57L389.3,143.49L269.73,23.92L269.73,23.92z M269.73,233.19l-17.45-17.45
			l72.26-72.26l-72.26-72.26l17.44-17.45l89.7,89.7L269.73,233.19L269.73,233.19z M140.23,233.19l-89.7-89.7l89.71-89.7l17.44,17.45
			l-72.26,72.26l72.26,72.26L140.23,233.19L140.23,233.19z M204.98,168.44l-24.95-24.95l24.95-24.95l24.95,24.95L204.98,168.44
			L204.98,168.44z"/>
	</g>
</g>
<g>
	<g id="XMLID_00000031198018967758097250000006596498308178280335_">
		<linearGradient id="XMLID_3_" gradientUnits="userSpaceOnUse" x1="406.4236" y1="110.6724" x2="157.3958" y2="110.6724">
			<stop  offset="0" style="stop-color:#01A79D"/>
			<stop  offset="1" style="stop-color:#292562"/>
		</linearGradient>
		<path id="XMLID_00000114759992241648004690000007786251706201988798_" class="st2" d="M427.34,115.93l22.07,30.38h-13.16
			l-20.36-29.18h-1.94v29.18H403.2V75.03h12.6c9.41,0,16.22,1.77,20.4,5.31c4.62,3.94,6.93,9.14,6.93,15.61
			c0,5.04-1.44,9.39-4.34,13.02C435.9,112.6,432.08,114.92,427.34,115.93z M413.95,107.76h3.42c10.19,0,15.29-3.89,15.29-11.68
			c0-7.29-4.96-10.94-14.87-10.94h-3.84V107.76z"/>
		<linearGradient id="XMLID_4_" gradientUnits="userSpaceOnUse" x1="497.3159" y1="110.6724" x2="248.288" y2="110.6724">
			<stop  offset="0" style="stop-color:#01A79D"/>
			<stop  offset="1" style="stop-color:#292562"/>
		</linearGradient>
		<path id="XMLID_00000116194331697032017850000013025054709849555646_" class="st3" d="M491.42,85.14h-28.59v17.13h27.75v10.11
			h-27.75v23.82h28.59v10.11h-39.34V75.03h39.34V85.14z"/>
		<linearGradient id="XMLID_5_" gradientUnits="userSpaceOnUse" x1="595.2578" y1="108.4344" x2="489.0135" y2="108.4344">
			<stop  offset="0" style="stop-color:#01A79D"/>
			<stop  offset="1" style="stop-color:#292562"/>
		</linearGradient>
		<path id="XMLID_00000074439149033356262520000004522172640013624462_" class="st4" d="M507.16,146.31h-11.59l35.28-75.76
			l34.02,75.76H553.1H507.16z M549.46,137.31l-18.6-42.66l-19.5,42.66H549.46z"/>
		<linearGradient id="XMLID_6_" gradientUnits="userSpaceOnUse" x1="718.9297" y1="110.6724" x2="469.9019" y2="110.6724">
			<stop  offset="0" style="stop-color:#01A79D"/>
			<stop  offset="1" style="stop-color:#292562"/>
		</linearGradient>
		<path id="XMLID_00000119112267819841684240000016164815741701918337_" class="st5" d="M577.45,75.03v61.17h20.96v10.11H566.7
			V75.03H577.45z"/>
		<linearGradient id="XMLID_7_" gradientUnits="userSpaceOnUse" x1="799.1715" y1="110.6264" x2="550.1437" y2="110.6264">
			<stop  offset="0" style="stop-color:#01A79D"/>
			<stop  offset="1" style="stop-color:#292562"/>
		</linearGradient>
		<path id="XMLID_00000025437581066356380940000004334427957165507724_" class="st6" d="M650.8,78.84v12.72
			c-6.22-5.2-12.66-7.8-19.31-7.8c-7.33,0-13.49,2.63-18.51,7.89c-5.05,5.23-7.57,11.64-7.57,19.21c0,7.48,2.52,13.79,7.57,18.93
			c5.04,5.14,11.23,7.71,18.56,7.71c3.79,0,7-0.61,9.65-1.85c1.47-0.61,3.01-1.45,4.59-2.49c1.59-1.05,3.25-2.31,5.01-3.79v12.99
			c-6.16,3.49-12.63,5.24-19.4,5.24c-10.18,0-18.88-3.56-26.08-10.67c-7.17-7.17-10.76-15.82-10.76-25.95c0-9.08,3.01-17.18,9-24.29
			c7.39-8.71,16.94-13.06,28.68-13.06C638.63,73.64,644.82,75.38,650.8,78.84z"/>
		<linearGradient id="XMLID_8_" gradientUnits="userSpaceOnUse" x1="929.1564" y1="110.6494" x2="680.1286" y2="110.6494">
			<stop  offset="0" style="stop-color:#01A79D"/>
			<stop  offset="1" style="stop-color:#292562"/>
		</linearGradient>
		<path id="XMLID_00000089532236826281283950000011408164754016973972_" class="st7" d="M650.41,110.35
			c0-10.03,3.68-18.65,11.04-25.85c7.33-7.2,16.12-10.8,26.41-10.8c10.16,0,18.87,3.63,26.13,10.9
			c7.29,7.26,10.95,15.99,10.95,26.18c0,10.25-3.66,18.94-10.99,26.08c-7.36,7.17-16.24,10.76-26.64,10.76
			c-9.21,0-17.46-3.19-24.79-9.56C654.44,131,650.41,121.77,650.41,110.35z M661.26,110.47c0,7.87,2.65,14.34,7.94,19.42
			c5.26,5.07,11.35,7.61,18.23,7.61c7.48,0,13.79-2.58,18.94-7.75c5.14-5.23,7.7-11.59,7.7-19.1c0-7.6-2.54-13.96-7.61-19.1
			c-5.05-5.17-11.3-7.75-18.74-7.75c-7.43,0-13.69,2.58-18.79,7.75C663.81,96.66,661.26,102.96,661.26,110.47z"/>
		<linearGradient id="XMLID_9_" gradientUnits="userSpaceOnUse" x1="1058.4252" y1="110.6724" x2="809.3973" y2="110.6724">
			<stop  offset="0" style="stop-color:#01A79D"/>
			<stop  offset="1" style="stop-color:#292562"/>
		</linearGradient>
		<path id="XMLID_00000154426186353273807130000018316393631228323738_" class="st8" d="M753.34,115.93l22.07,30.38h-13.16
			l-20.36-29.18h-1.94v29.18H729.2V75.03h12.6c9.41,0,16.22,1.77,20.4,5.31c4.62,3.94,6.93,9.14,6.93,15.61
			c0,5.04-1.44,9.39-4.34,13.02C761.9,112.6,758.08,114.92,753.34,115.93z M739.95,107.76h3.42c10.19,0,15.29-3.89,15.29-11.68
			c0-7.29-4.96-10.94-14.87-10.94h-3.84V107.76z"/>
		<linearGradient id="XMLID_10_" gradientUnits="userSpaceOnUse" x1="1149.3174" y1="110.6724" x2="900.2896" y2="110.6724">
			<stop  offset="0" style="stop-color:#01A79D"/>
			<stop  offset="1" style="stop-color:#292562"/>
		</linearGradient>
		<path id="XMLID_00000104702526658414254700000017727892414505360041_" class="st9" d="M817.42,85.14h-28.59v17.13h27.75v10.11
			h-27.75v23.82h28.59v10.11h-39.34V75.03h39.34V85.14z"/>
	</g>
	<g>
		<g>
			<path class="st10" d="M438.61,163.95l-7.04,4.17c-1.32-2.29-2.57-3.78-3.76-4.47c-1.24-0.79-2.85-1.19-4.81-1.19
				c-2.41,0-4.41,0.68-6,2.05c-1.59,1.34-2.39,3.03-2.39,5.07c0,2.81,2.09,5.07,6.26,6.78l5.74,2.35c4.67,1.89,8.09,4.19,10.25,6.91
				c2.16,2.72,3.24,6.06,3.24,10.01c0,5.29-1.76,9.67-5.29,13.12c-3.55,3.48-7.96,5.22-13.23,5.22c-4.99,0-9.12-1.48-12.37-4.44
				c-3.21-2.96-5.21-7.12-6-12.49l8.8-1.94c0.4,3.38,1.09,5.72,2.09,7.01c1.79,2.49,4.4,3.73,7.83,3.73c2.71,0,4.96-0.91,6.75-2.72
				c1.79-1.81,2.68-4.11,2.68-6.9c0-1.12-0.16-2.14-0.47-3.07c-0.31-0.93-0.8-1.79-1.45-2.57c-0.66-0.78-1.51-1.51-2.55-2.2
				c-1.04-0.68-2.29-1.34-3.73-1.96l-5.55-2.31c-7.88-3.33-11.82-8.2-11.82-14.61c0-4.32,1.65-7.94,4.96-10.85
				c3.3-2.93,7.42-4.4,12.34-4.4C429.7,154.26,434.88,157.49,438.61,163.95z"/>
			<path class="st10" d="M445.85,183.89c0-8.1,2.97-15.06,8.91-20.87c5.91-5.81,13.02-8.72,21.32-8.72c8.2,0,15.23,2.93,21.1,8.8
				c5.89,5.86,8.83,12.91,8.83,21.13c0,8.27-2.96,15.29-8.87,21.06c-5.94,5.79-13.11,8.68-21.51,8.68c-7.43,0-14.1-2.57-20.02-7.72
				C449.11,200.56,445.85,193.11,445.85,183.89z M454.61,184c0,6.36,2.14,11.59,6.41,15.69c4.25,4.1,9.16,6.15,14.72,6.15
				c6.04,0,11.13-2.09,15.28-6.26c4.15-4.22,6.22-9.37,6.22-15.43c0-6.14-2.05-11.28-6.15-15.43c-4.08-4.17-9.12-6.26-15.13-6.26
				c-5.99,0-11.05,2.09-15.17,6.26C456.67,172.84,454.61,177.94,454.61,184z"/>
			<path class="st10" d="M524.3,155.37v49.39h16.92v8.16h-25.61v-57.55H524.3z"/>
			<path class="st10" d="M554.84,155.37v34.66c0,4.95,0.81,8.56,2.42,10.85c2.41,3.31,5.8,4.96,10.18,4.96
				c4.4,0,7.8-1.65,10.21-4.96c1.61-2.21,2.42-5.83,2.42-10.85v-34.66h8.68v37.05c0,6.06-1.89,11.06-5.67,14.98
				c-4.25,4.37-9.47,6.56-15.65,6.56c-6.19,0-11.39-2.19-15.62-6.56c-3.78-3.93-5.67-8.92-5.67-14.98v-37.05H554.84z"/>
			<path class="st10" d="M617.01,163.54v49.39h-8.68v-49.39h-13.23v-8.16h35.11v8.16H617.01z"/>
			<path class="st10" d="M645.23,155.37v57.55h-8.68v-57.55H645.23z"/>
			<path class="st10" d="M654.85,183.89c0-8.1,2.97-15.06,8.91-20.87c5.91-5.81,13.02-8.72,21.32-8.72c8.2,0,15.23,2.93,21.1,8.8
				c5.89,5.86,8.83,12.91,8.83,21.13c0,8.27-2.96,15.29-8.87,21.06c-5.94,5.79-13.11,8.68-21.51,8.68c-7.43,0-14.1-2.57-20.02-7.72
				C658.11,200.56,654.85,193.11,654.85,183.89z M663.61,184c0,6.36,2.14,11.59,6.41,15.69c4.25,4.1,9.16,6.15,14.72,6.15
				c6.04,0,11.13-2.09,15.28-6.26c4.15-4.22,6.22-9.37,6.22-15.43c0-6.14-2.05-11.28-6.15-15.43c-4.08-4.17-9.12-6.26-15.13-6.26
				c-5.99,0-11.05,2.09-15.17,6.26C665.67,172.84,663.61,177.94,663.61,184z"/>
			<path class="st10" d="M724.61,212.92v-61.46l41.97,43.91v-39.99h8.68v61.05l-41.97-43.8v40.29H724.61z"/>
			<path class="st10" d="M819.74,163.95l-7.04,4.17c-1.32-2.29-2.57-3.78-3.76-4.47c-1.24-0.79-2.85-1.19-4.81-1.19
				c-2.41,0-4.41,0.68-6,2.05c-1.59,1.34-2.39,3.03-2.39,5.07c0,2.81,2.09,5.07,6.26,6.78l5.74,2.35c4.67,1.89,8.09,4.19,10.25,6.91
				c2.16,2.72,3.24,6.06,3.24,10.01c0,5.29-1.76,9.67-5.29,13.12c-3.55,3.48-7.96,5.22-13.23,5.22c-4.99,0-9.12-1.48-12.37-4.44
				c-3.21-2.96-5.21-7.12-6-12.49l8.8-1.94c0.4,3.38,1.09,5.72,2.09,7.01c1.79,2.49,4.4,3.73,7.83,3.73c2.71,0,4.96-0.91,6.75-2.72
				c1.79-1.81,2.68-4.11,2.68-6.9c0-1.12-0.16-2.14-0.47-3.07c-0.31-0.93-0.8-1.79-1.45-2.57c-0.66-0.78-1.51-1.51-2.55-2.2
				c-1.04-0.68-2.29-1.34-3.73-1.96l-5.55-2.31c-7.88-3.33-11.82-8.2-11.82-14.61c0-4.32,1.65-7.94,4.96-10.85
				c3.3-2.93,7.42-4.4,12.34-4.4C810.83,154.26,816.01,157.49,819.74,163.95z"/>
		</g>
	</g>
</g>
</svg>
